<?xml version="1.0" encoding="utf-8"?>
<!-- Generator: Adobe Illustrator 16.0.1, SVG Export Plug-In . SVG Version: 6.00 Build 0)  -->
<!DOCTYPE svg PUBLIC "-//W3C//DTD SVG 1.1//EN" "http://www.w3.org/Graphics/SVG/1.1/DTD/svg11.dtd">
<svg version="1.1" xmlns="http://www.w3.org/2000/svg" xmlns:xlink="http://www.w3.org/1999/xlink" x="0px" y="0px" width="88px"
	 height="88px" viewBox="0 0 88 88" enable-background="new 0 0 88 88" xml:space="preserve">
<g id="graphic">
	<circle fill="#FFFFFF" cx="44" cy="44" r="44"/>
	<g>
		<path fill="#333333" d="M44,25.43c5.403,0,10.363,1.851,14.322,4.929l1.082-1.084C55.748,24.83,50.207,21.992,44,21.992
			s-11.748,2.838-15.404,7.282l1.082,1.084C33.637,27.28,38.597,25.43,44,25.43z"/>
	</g>
	<polygon fill="#333333" points="57.461,46.585 46.339,43.207 46.37,30 42.328,30 39.676,50.609 39.73,50.68 32.812,47.117 
		30.528,49.399 30.528,50.686 39.658,59.814 40.83,66 55.631,66 58.25,47.858 	"/>
</g>
<g id="Layer_2">
</g>
</svg>
