<?xml version="1.0" encoding="utf-8"?>
<!-- Generator: Adobe Illustrator 16.0.1, SVG Export Plug-In . SVG Version: 6.00 Build 0)  -->
<!DOCTYPE svg PUBLIC "-//W3C//DTD SVG 1.1//EN" "http://www.w3.org/Graphics/SVG/1.1/DTD/svg11.dtd">
<svg version="1.1" id="Layer_1" xmlns="http://www.w3.org/2000/svg" xmlns:xlink="http://www.w3.org/1999/xlink" x="0px" y="0px"
	 width="90px" height="90px" viewBox="0 0 90 90" enable-background="new 0 0 90 90" xml:space="preserve">
<g>
	<path d="M94,351c23.71,0,43,19.29,43,43s-19.29,43-43,43s-43-19.29-43-43S70.29,351,94,351 M94,350c-24.301,0-44,19.698-44,44
		s19.699,44,44,44s44-19.698,44-44S118.301,350,94,350L94,350z"/>
</g>
<polygon points="95.5,372 92.5,372 91.5,394 93,416 95.5,416 96.5,394 "/>
<polygon points="72,392.5 72,395.5 94,396.5 116,395.5 116,392.5 94,391.5 "/>
<g>
	<path fill="#FFFFFF" d="M45,2c23.71,0,43,19.29,43,43c0,23.71-19.29,43-43,43C21.29,88,2,68.71,2,45C2,21.29,21.29,2,45,2 M45,1
		C20.699,1,1,20.698,1,45s19.699,44,44,44s44-19.698,44-44S69.301,1,45,1L45,1z"/>
</g>
<polygon fill="#FFFFFF" points="46.5,23 43.5,23 42.5,45 44,67 46.5,67 47.5,45 "/>
<polygon fill="#FFFFFF" points="23,43.5 23,46.5 45,47.5 67,46.5 67,43.5 45,42.5 "/>
</svg>
